<?xml version="1.0" encoding="utf-8"?>
<!-- Generator: Adobe Illustrator 23.0.3, SVG Export Plug-In . SVG Version: 6.00 Build 0)  -->
<svg version="1.1" id="Icons" xmlns="http://www.w3.org/2000/svg" xmlns:xlink="http://www.w3.org/1999/xlink" x="0px" y="0px"
	 viewBox="0 0 32 32" style="enable-background:new 0 0 32 32;" xml:space="preserve">
<g>
	<path d="M6.1,11.8C5.3,11,4.9,10,4.9,8.9s0.4-2.1,1.2-2.8c1.5-1.5,4.1-1.5,5.7,0l4.9,4.9c0.4,0.4,1,0.4,1.4,0s0.4-1,0-1.4l-4.9-4.9
		C12,3.6,10.5,2.9,8.9,2.9S5.8,3.6,4.7,4.7C3.6,5.8,2.9,7.3,2.9,8.9s0.6,3.1,1.8,4.2l4.9,4.9c0.2,0.2,0.5,0.3,0.7,0.3
		s0.5-0.1,0.7-0.3c0.4-0.4,0.4-1,0-1.4L6.1,11.8z"/>
	<path d="M27.3,18.8l-4.9-4.9c-0.4-0.4-1-0.4-1.4,0s-0.4,1,0,1.4l4.9,4.9c0.8,0.8,1.2,1.8,1.2,2.8s-0.4,2.1-1.2,2.8
		c-1.5,1.5-4.1,1.5-5.7,0L15.3,21c-0.4-0.4-1-0.4-1.4,0s-0.4,1,0,1.4l4.9,4.9c1.1,1.1,2.6,1.8,4.2,1.8s3.1-0.6,4.2-1.8
		c1.1-1.1,1.8-2.6,1.8-4.2S28.4,20,27.3,18.8z"/>
	<path d="M11.1,11.1c-0.4,0.4-0.4,1,0,1.4l8.5,8.5c0.2,0.2,0.5,0.3,0.7,0.3s0.5-0.1,0.7-0.3c0.4-0.4,0.4-1,0-1.4l-8.5-8.5
		C12.1,10.7,11.4,10.7,11.1,11.1z"/>
</g>
</svg>
