<?xml version="1.0" standalone="no"?>
<!DOCTYPE svg PUBLIC "-//W3C//DTD SVG 20010904//EN"
 "http://www.w3.org/TR/2001/REC-SVG-20010904/DTD/svg10.dtd">
<svg version="1.0" xmlns="http://www.w3.org/2000/svg"
 width="1043.000000pt" height="1280.000000pt" viewBox="0 0 1043.000000 1280.000000"
 preserveAspectRatio="xMidYMid meet">
<metadata>
Created by potrace 1.15, written by Peter Selinger 2001-2017
</metadata>
<g transform="translate(0.000000,1280.000000) scale(0.100000,-0.100000)"
fill="#000000" stroke="none">
<path d="M4055 12789 c-27 -4 -90 -13 -140 -18 -104 -12 -222 -48 -315 -96
-36 -19 -117 -59 -180 -90 -63 -31 -133 -69 -155 -86 -22 -16 -53 -37 -69 -47
-15 -9 -66 -47 -113 -84 -47 -38 -92 -68 -99 -68 -8 0 -14 -4 -14 -8 0 -19
-110 -139 -145 -157 -27 -15 -48 -39 -77 -90 -78 -137 -149 -284 -155 -322 -3
-21 -12 -50 -20 -65 -7 -15 -18 -76 -24 -135 -13 -142 -30 -296 -38 -358 -7
-52 12 -508 23 -543 6 -17 -1 -20 -86 -26 -51 -3 -97 -11 -103 -17 -6 -6 -11
-77 -13 -172 -3 -161 -3 -162 27 -235 17 -41 51 -140 75 -222 24 -81 58 -179
74 -216 16 -38 44 -103 62 -144 52 -121 61 -137 86 -150 38 -21 81 -14 127 20
40 29 97 102 97 123 0 6 2 8 5 6 5 -5 87 -300 145 -521 52 -196 138 -415 189
-482 72 -93 252 -276 357 -362 68 -56 106 -95 111 -112 9 -39 67 -114 102
-135 17 -10 38 -31 46 -47 14 -26 42 -50 61 -50 3 0 1 7 -6 15 -7 9 -10 18 -8
21 3 3 16 -9 29 -26 43 -56 69 -82 82 -77 14 4 30 -10 40 -35 3 -9 23 -22 45
-27 21 -6 47 -20 58 -32 11 -12 26 -18 37 -15 11 3 32 -5 49 -17 24 -18 45
-22 105 -24 41 -1 77 -4 81 -7 10 -11 77 -6 135 9 109 28 134 19 250 -95 l70
-68 -22 -27 c-26 -34 -497 -538 -544 -583 l-34 -33 -35 43 c-142 179 -255 332
-310 423 -21 33 -130 168 -243 300 -384 446 -463 546 -544 688 -30 53 -32 64
-29 129 2 49 -1 73 -9 75 -18 6 -84 -65 -126 -137 -90 -151 -301 -406 -373
-451 -20 -12 -39 -32 -44 -45 -6 -15 -35 -36 -82 -60 -40 -20 -134 -70 -208
-112 -162 -91 -419 -215 -487 -235 -26 -8 -113 -42 -193 -75 -97 -41 -200 -74
-310 -101 -184 -45 -217 -56 -410 -136 -197 -81 -349 -178 -518 -331 -263
-239 -342 -519 -342 -1224 0 -280 9 -384 45 -531 14 -57 30 -156 35 -219 10
-111 40 -562 40 -587 0 -7 6 -13 14 -13 16 0 22 -29 32 -160 5 -68 17 -113 59
-225 29 -77 92 -248 140 -380 48 -132 108 -292 135 -355 26 -63 51 -131 55
-150 9 -44 38 -102 80 -161 51 -72 63 -100 85 -201 11 -51 32 -127 45 -168 13
-41 35 -153 49 -247 27 -189 50 -258 112 -349 38 -55 39 -58 38 -143 -9 -501
-9 -493 13 -572 12 -41 50 -138 85 -215 l63 -139 -1 -125 c-1 -77 -14 -218
-33 -364 -18 -132 -30 -250 -26 -263 3 -14 16 -26 33 -30 34 -10 6978 -10
6988 -1 4 4 2 13 -3 20 -24 29 -74 218 -58 218 2 0 53 -24 112 -52 l108 -53
503 -3 504 -3 148 45 c82 25 175 58 207 72 32 14 94 39 138 54 125 44 166 64
224 115 83 71 107 106 193 285 44 91 123 252 175 359 l95 194 -21 42 c-19 39
-21 58 -21 263 l0 222 -80 221 c-68 187 -81 234 -87 306 -5 70 -10 90 -30 114
-24 27 -132 85 -237 125 -44 17 -54 27 -104 109 -78 127 -289 526 -395 745
-113 234 -159 313 -191 328 -15 6 -26 20 -26 31 0 47 -159 242 -215 262 -19 7
-36 21 -39 33 -3 12 -6 79 -6 149 0 86 -5 138 -14 160 -17 40 -61 81 -101 94
l-30 10 -1 84 c-1 126 0 123 -61 189 l-57 62 -12 196 c-16 264 -28 311 -111
424 -19 26 -47 88 -63 138 -17 50 -39 108 -49 128 -22 44 -40 108 -76 279 -55
263 -149 496 -252 627 -43 55 -142 128 -208 154 -32 13 -211 42 -256 42 -15 0
-33 8 -40 17 -42 51 -435 189 -814 287 -137 35 -280 69 -317 75 -83 14 -510
156 -656 218 -59 25 -132 55 -163 67 -31 11 -64 27 -73 35 -9 8 -48 75 -86
150 -38 75 -80 154 -94 176 l-24 40 -7 -38 c-4 -20 -4 -53 0 -73 3 -20 10
-154 15 -298 9 -297 1 -261 127 -576 122 -303 98 -269 -81 117 -53 113 -110
219 -138 257 -60 79 -162 167 -243 208 -33 17 -62 32 -64 34 -2 2 34 43 80 91
171 178 268 370 256 505 -5 52 4 78 16 46 2 -7 2 23 -1 68 -4 82 13 200 44
289 13 39 144 275 237 428 47 78 113 245 132 337 21 97 42 260 50 380 3 52 8
106 11 118 5 23 6 22 34 -17 60 -82 127 -92 198 -28 19 18 22 30 22 98 0 63 6
92 31 154 20 51 33 107 40 168 5 51 19 141 30 202 27 139 22 303 -13 440 -27
106 -42 119 -125 109 -48 -6 -53 -4 -53 13 0 10 -9 117 -20 236 -14 146 -27
233 -39 265 -10 26 -22 69 -26 96 -10 75 -126 372 -185 478 -78 139 -117 193
-168 229 -26 18 -78 64 -117 102 -38 38 -85 81 -105 96 -19 14 -60 47 -90 72
-52 43 -148 99 -172 99 -10 0 -63 30 -148 86 -19 12 -61 27 -93 33 -32 6 -84
22 -115 36 -45 19 -103 30 -271 50 -218 25 -327 29 -416 14z m-185 -4849 c0
-5 -5 -10 -11 -10 -5 0 -7 5 -4 10 3 6 8 10 11 10 2 0 4 -4 4 -10z m1115 -440
c-3 -5 -14 -10 -23 -10 -15 0 -15 2 -2 10 20 13 33 13 25 0z m-617 -732 c7 -7
12 -19 12 -27 0 -11 -4 -10 -20 4 -21 19 -26 35 -12 35 4 0 13 -5 20 -12z
m152 -183 c97 -116 140 -174 140 -193 0 -26 -43 21 -151 164 -136 180 -130
196 11 29z m1068 60 c32 -71 131 -480 118 -492 -20 -21 -156 450 -147 510 2
15 18 6 29 -18z m-888 -299 c0 -3 -4 -8 -10 -11 -5 -3 -10 -1 -10 4 0 6 5 11
10 11 6 0 10 -2 10 -4z m1165 -3625 c57 -15 152 -74 211 -132 104 -103 173
-358 135 -501 -20 -75 -27 -88 -46 -88 -7 0 -17 -9 -20 -20 -3 -11 -15 -20
-26 -20 -10 0 -18 -5 -17 -11 2 -6 -2 -13 -9 -16 -17 -6 -22 36 -27 252 -4
200 -10 232 -60 337 -37 75 -88 133 -161 181 -33 21 -51 37 -40 34 11 -3 38
-10 60 -16z"/>
<path d="M5402 7995 c0 -16 2 -22 5 -12 2 9 2 23 0 30 -3 6 -5 -1 -5 -18z"/>
</g>
</svg>
